<svg version="1" xmlns="http://www.w3.org/2000/svg" width="933.333" height="933.333" viewBox="0 0 700.000000 700.000000"><path d="M345 3.5c-1.4.8-6.5 7.9-12 16.8l-9.5 15.5-4.3.4-4.4.3-13-13.7C289 9.3 288.7 9 284.5 9c-7 0-8.4 1.9-15.4 20.8l-6.2 17-4.4 1.2c-2.5.7-4.9.8-5.7.4-.8-.5-7.5-5.3-15-10.7-14.8-10.6-18-11.7-23.1-7.7-3.3 2.6-3.4 3-6.6 22.9l-2.7 16.6-4.1 2.2-4 2.3-16.3-7.5c-9-4.1-17.6-7.5-19.3-7.5-2 0-4 1.1-6.3 3.4l-3.3 3.3.6 19 .6 19-3.5 2.6-3.5 2.7-16.9-4c-9.3-2.2-18-4-19.3-4-2.9 0-9.1 6-9.1 8.9 0 1.1 1.8 9.8 4 19.2l4 17.1-2.6 3.6-2.7 3.5-19-.6-19-.6-3.3 3.3c-2.3 2.3-3.4 4.3-3.4 6.2 0 1.6 3.4 10.3 7.5 19.3l7.5 16.4-2.3 4-2.2 4.1-18 2.8c-17 2.7-18.2 3.1-20.7 5.9-5 5.4-4.2 8.2 7.2 24 5.5 7.6 10.3 14.5 10.6 15.3.3.7 0 3.2-.5 5.4l-1.1 4-17.1 6.3C11 276.1 9 277.5 9 284.4c0 4 .5 4.6 13.8 17.6 13.6 13.4 13.8 13.5 13.4 17.5-.3 4-.4 4-15.8 13.5C5.1 342.4 2 345.2 2 349.9c0 4.9 2.5 7.2 18.1 16.8l15.7 9.7.4 4.4.3 4.4-13.7 13C9.3 411 9 411.3 9 415.5c0 7 1.9 8.4 20.9 15.4 15.8 5.8 17 6.4 18 9.3.6 1.7 1.1 3.8 1.1 4.7 0 .9-4.7 8.2-10.5 16.1-8.9 12.3-10.5 15.1-10.5 18.3 0 5.3 4 9.3 10.2 10.2 2.6.4 10.6 1.7 18 2.9l13.3 2.2 2.2 4 2.3 4.1-7.5 16.3c-4.1 9-7.5 17.6-7.5 19.3 0 2 1.1 4 3.4 6.3l3.3 3.3 19-.6 19-.6 2.7 3.5 2.6 3.6-4 17.1c-2.2 9.4-4 18.1-4 19.2 0 2.7 6.2 8.9 8.9 8.9 1.1 0 9.8-1.8 19.2-4l17.2-4 3.5 2.7 3.5 2.6-.6 19-.6 19 3.3 3.3c2.3 2.3 4.3 3.4 6.3 3.4 1.5 0 10.2-3.4 19.2-7.5l16.4-7.5 4 2.3 4.1 2.2 2.7 16.6c3.2 19.9 3.3 20.3 6.6 22.9 5.2 4.1 8.4 3 24.2-8.5 7.9-5.8 15.2-10.5 16.1-10.5.9 0 3.1.5 4.7 1.1 2.9.9 3.5 2.3 9.3 17.7 7 18.9 8.7 21.2 15.3 21.2 4.1 0 4.6-.4 17.7-13.8 13.3-13.6 13.5-13.8 17.5-13.4l4 .3 9.7 15.8c9.6 15.5 12 18.1 16.8 18.1 4.8 0 7.2-2.6 16.7-18.1l9.7-15.7 4.4-.4 4.4-.3 13.1 13.7c12.9 13.4 13.3 13.8 17.4 13.8 6.6 0 8.3-2.3 15.3-21.2 5.8-15.4 6.4-16.8 9.3-17.7 1.6-.6 3.8-1.1 4.7-1.1.9 0 8.2 4.7 16.1 10.5 15.8 11.5 19 12.6 24.2 8.5 3.3-2.6 3.4-3 6.6-22.9l2.7-16.6 4.1-2.2 4-2.3 16.4 7.5c9 4.1 17.7 7.5 19.2 7.5 2 0 4-1.1 6.3-3.4l3.3-3.3-.6-19-.6-19 3.5-2.6 3.5-2.7 17.2 4c9.4 2.2 18.1 4 19.2 4 2.7 0 8.9-6.2 8.9-8.9 0-1.1-1.8-9.8-4-19.2l-4-17.1 2.6-3.5 2.7-3.5 19.4.4 19.5.3 2.9-3.3c1.8-2 2.9-4.3 2.9-6.1 0-1.5-3.4-10.1-7.5-19.1l-7.5-16.2 2.2-4.1 2.3-4.1 13.3-2.2c7.4-1.2 15.4-2.5 18-2.9 6.2-.9 10.2-4.9 10.2-10.2 0-3.2-1.6-6-10.5-18.3-5.8-7.9-10.5-15.2-10.5-16.1 0-.9.5-3 1.1-4.7 1-2.9 2.2-3.5 18-9.3 19-7 20.9-8.4 20.9-15.4 0-4.2-.3-4.5-13.8-17.3l-13.7-13 .3-4.4.4-4.4 15.7-9.7c15.6-9.6 18.1-11.9 18.1-16.8 0-4.7-3-7.5-18.4-16.9-15.5-9.5-15.5-9.5-15.8-13.5-.4-4-.2-4.1 13.4-17.5 13.3-13 13.8-13.6 13.8-17.6 0-6.9-2-8.3-20.9-15.3l-17.1-6.3-1.1-4c-.5-2.2-.8-4.6-.5-5.3.2-.7 5-7.6 10.5-15.3 11.5-16 12.3-18.8 7.4-24.1-2.6-2.8-3.8-3.2-20.8-5.9l-18-2.8-2.2-4.1-2.3-4 7.5-16.4c4.1-9 7.5-17.7 7.5-19.3 0-1.9-1.1-3.9-3.4-6.2l-3.3-3.3-19 .6-19 .6-2.7-3.5-2.7-3.6 4.1-16.9c2.2-9.4 4-18 4-19.3 0-2.9-6.1-9-9.1-9-1.3 0-10 1.8-19.3 4l-16.9 4-3.5-2.7-3.5-2.6.6-19 .6-19-3.3-3.3c-2.3-2.3-4.3-3.4-6.3-3.4-1.7 0-10.3 3.4-19.2 7.5l-16.3 7.4-3.9-1.9c-4.4-2.3-4-1.1-7.4-21.9-2.8-16.5-3.3-18.2-6.7-20.5-4.9-3.4-8.2-2.2-22.6 8.1-7.5 5.4-14.2 10.2-15 10.7-.8.4-3.2.3-5.7-.4l-4.3-1.2-6.3-17c-7-18.9-8.4-20.8-15.4-20.8-4.2 0-4.5.3-17.3 13.8l-13 13.7-4.3-.3-4.4-.4-9.5-15.5C357.4 4.7 354.8 2 349.8 2c-1.3.1-3.4.7-4.8 1.5zm12.8 61.4c13.9 7.1 16.3 24.8 4.9 34.8-6.6 5.8-16.7 6.7-24.7 2.2-14.3-8-12.7-30.7 2.5-37.5 4.5-2 12.9-1.7 17.3.5zM320 114.7c17.2 18.3 21.1 21.2 28.3 21.3 6.4 0 10.4-2.5 23-14.7 6.7-6.5 15.2-14.6 18.9-18.2l6.7-6.4 6.3 1.3c36.4 7.5 75.9 26.3 106.6 50.7 22.1 17.5 46.5 45.6 59.5 68.3l2.5 4.5-12.9 29c-14.1 31.8-14.7 34.2-10.8 42.3 1.2 2.4 3.6 5.2 5.3 6.3 1.7 1.1 13.7 6.7 26.6 12.4l23.5 10.4.9 7.8c1.1 9.6-.7 47-2.9 59.3-2.5 13.9-7.4 32.8-11.7 44.5-5.5 15.5-18.3 41-27.1 54.1-7 10.6-25.4 34.1-29.3 37.5-1.8 1.5-3.5 1.3-23.9-3.2-12.1-2.6-23.7-4.8-25.8-4.8-5.8-.1-13.2 4.3-16 9.4-.6 1.1-3.6 13.7-6.6 27.9l-5.6 26-8 3.3c-19.4 7.9-39.8 13.5-62.5 17-14.2 2.2-52.8 2.5-66.5.5-17.1-2.5-34-6.4-48.5-11.2-14.2-4.7-28-10.4-28-11.5 0-2.6-10.4-48.9-11.7-51.7-1.9-4.5-4.7-7.2-9.5-9.3-5.4-2.2-7-2-31 3.1-11.9 2.6-22.3 4.4-23.2 4.1-2.1-.8-21-24.3-28.2-35-31-46.3-46.4-102.9-42.9-157.9l.7-11.6 23.1-10.3c12.7-5.7 24.6-11.6 26.4-13.2 4.1-3.6 6.8-10.4 6-15.5-.4-2.1-5.8-15.5-12.2-29.9-6.3-14.4-11.5-26.7-11.5-27.5 0-1.9 12.1-20.9 20.3-31.8 8.7-11.7 34.3-37.5 45.4-45.8 29.1-22 60.7-37.4 94.8-46.2 6.1-1.6 11.9-2.9 13-2.8 1.3 0 7.9 6.3 18.5 17.5zM110 252.1c5.6 2.5 7.7 4.4 10 8.9 4.2 8.3 3.4 16.6-2.3 23.5-9.3 11.4-27.6 9.4-34.1-3.7-4.6-9.2-2.7-19.5 4.8-25.4 7-5.6 14.1-6.7 21.6-3.3zm492.4.1c12.1 3.6 17.9 18.8 11.9 30.6-5.6 10.8-22.7 13.6-32.5 5.4-11.6-9.7-7.6-30.6 6.8-35.7 4.9-1.8 8.6-1.8 13.8-.3zM205.1 544.3c12.4 6.5 15.2 23.6 5.5 33.3-10.3 10.3-28 7.6-34.1-5.2-1-2.2-1.7-6-1.7-9.5 0-15.8 16.4-25.9 30.3-18.6zm306.6 1.2c7.1 3.6 10.6 8.9 11.1 17 .5 7.7-2 14-6.9 17.7-9.3 6.9-20.7 6.3-28.5-1.6-5.4-5.4-7.1-11-5.5-18.6 2.8-13.9 17-20.8 29.8-14.5z"/></svg>