<svg xmlns="http://www.w3.org/2000/svg" width="105.08489" height="105.07689">
<circle cx="52.542445" cy="52.542445" r="52.542445" fill="#d8a47f" />
<path stroke="#c4c4c4" stroke-opacity=".95703" stroke-width=".5" stroke-miterlimit="100" d="M52.54538.25c-.5055 0-1.01116.22297-1.28516.66797l-2.7207 4.39453-1.28125.125-3.52344-3.7793c-.714-.764-2.1555-.4801-2.5215.5039l-1.80467 4.82813-1.24414.37696-4.18555-3.0118c-.85-.614-2.20895-.0476-2.37695.9843l-.83008 5.0918-1.14258.6133L24.936 8.9043c-.954-.436-2.17867.38368-2.13867 1.42968l.1797 5.16602-.9922.81445-5.0293-1.18554c-1.022-.238-2.0603.7984-1.8203 1.8204l1.18554 5.0313-.81446.9903-5.166-.1796c-1.042-.03-1.8637 1.1827-1.4297 2.1387l2.1407 4.6953-.6133 1.1426-5.0898.8282c-1.034.168-1.5943 1.527-.9843 2.377l3.0117 4.1817-.3789 1.2461-4.8281 1.8066c-.98.366-1.266 1.8055-.5 2.5215l3.7773 3.5233-.125 1.2793L.9263 51.252c-.89.55-.89 2.02232 0 2.57032l4.3945 2.7207.125 1.2793-3.77738 3.52342c-.766.714-.48 2.1535.5 2.5215l4.82813 1.80468.3789 1.2461-3.0117 4.18358c-.612.852-.04964 2.209.98436 2.375l5.0899.82813.6133 1.1445-2.1406 4.6934c-.436.954.3877 2.18067 1.4297 2.13867l5.1641-.1797.8164.9922-1.1855 5.0332c-.24 1.02.7983 2.05446 1.8203 1.81446l5.0293-1.1836.9922.8125-.1797 5.168c-.04 1.046 1.1847 1.86373 2.1387 1.42773l4.6934-2.1387 1.1426.6133.8301 5.0879c.168 1.036 1.527 1.5963 2.377.9863l4.1836-3.0137 1.2461.3789 1.8047 4.8262c.366.98 1.8075 1.268 2.5215.5l3.5235-3.7754 1.2813.1269 2.7188 4.3945c.548.886 2.0223.888 2.5723 0l2.7187-4.3946 1.2813-.127 3.5215 3.7754c.714.768 2.1555.48 2.5215-.5l1.8047-4.8262 1.2461-.3789 4.1836 3.0136c.85.61 2.207.0477 2.375-.9863l.8301-5.0879 1.1446-.6133 4.6932 2.1388c.954.436 2.1766-.3797 2.1386-1.4278l-.1817-5.1679.9922-.8125 5.0313 1.1836c1.022.24 2.0584-.7945 1.8184-1.8145l-1.1855-5.0332.8145-.9922 5.166.1797c1.042.042 1.8658-1.1847 1.4278-2.1387l-2.139-4.6934.6113-1.1445 5.0899-.8282c1.036-.166 1.5984-1.523.9844-2.375l-3.0097-4.1836.377-1.246 4.8282-1.8047c.982-.368 1.268-1.8075.5-2.5215l-3.7754-3.5234.125-1.2793 4.3946-2.7207c.89-.548.89-2.0203 0-2.5703l-4.3945-2.7207-.125-1.2793 3.7774-3.5235c.768-.716.4801-2.1555-.5019-2.5215l-4.8262-1.8066-.3789-1.2461 3.0117-4.1816c.614-.85.0496-2.207-.9844-2.377l-5.0899-.8281-.6114-1.1426 2.1387-4.6953c.438-.956-.3757-2.1787-1.4277-2.1387l-5.166.1797-.8164-.9902 1.1875-5.0313c.24-1.022-.7983-2.0603-1.8203-1.8203l-5.0312 1.1855-.9923-.8144.1816-5.166c.04-1.046-1.1847-1.8637-2.1387-1.4297l-4.6935 2.1406-1.1426-.6133-.8301-5.0918c-.168-1.032-1.5269-1.5964-2.3769-.9844L66.9247 7.367l-1.2441-.377-1.8047-4.8282c-.366-.984-1.8094-1.2679-2.5234-.5039L57.831 5.4372l-1.27927-.125L53.8305.918C53.55544.47298 53.0508.25 52.5453.25zm-.07813 9.2129h.002c1.68086.0489 3.01797 1.42584 3.01757 3.1074 0 4.14454-6.2168 4.14454-6.2168 0-.0004-1.75174 1.44625-3.15772 3.19727-3.1074zm7.125 5.11913c11.04806 2.06952 20.62746 8.89194 26.1953 18.65625l-3.666 8.2793c-.633 1.433.0124 3.10914 1.4414 3.74414l7.0586 3.13476c.21996 2.20828.02538 6.64454.02538 6.64454-.5545 7.19232-3.12583 14.08166-7.41797 19.875 0 0-2.12198 2.81983-3.39843 4.10156l-6.57422-1.41406c-1.531-.328-3.0372.64568-3.3652 2.17968l-1.5586 7.28125c-10.1519 4.59902-21.8045 4.5434-31.9121-.15234l-1.5586-7.2812c-.328-1.532-1.8333-2.5067-3.3633-2.1777l-6.4277 1.3789c-1.1938-1.2294-3.2637-3.916-3.2637-3.916-2.719-3.6807-4.7571-7.8197-6.0176-12.2207 0 0-.4177-1.469-.5664-2.2109-.0732-.2979-.1429-.5968-.209-.8965-.1631-.8695-.2959-1.7443-.3984-2.623-.0603-.417-.1137-.8351-.1601-1.2539-.06-.7415-.1667-3.0888-.1816-3.5195.0039-.1842.0091-.3685.0157-.5527.0043-.239.0108-.4779.0195-.7168.0236-.5117.0575-1.0229.1016-1.5332.0215-.4295.0501-.8586.086-1.2871l6.6699-2.9766c1.4291-.6376 2.0744-2.3207 1.4414-3.7597l-3.416-7.7461c1.3733-2.4911 3.0196-4.8212 4.9082-6.9472 0 0 .9461-1.0279 1.2325-1.3086.6129-.6317 1.2474-1.2421 1.9024-1.8301.0675-.0653.1352-.1304.2031-.1953v.0273c5.1169-4.4723 11.3325-7.5012 18.0078-8.7754l4.7852 5.0215c1.082 1.133 2.8739 1.1748 4.0059.0918zm-44.20117 23.0215h.002c.57646.01848 1.1364.197 1.6172.5156l.002-.0039c.8565.57966 1.37032 1.54873 1.37108 2.58595-.004 1.7546-1.44677 3.16124-3.19336 3.11328h-.01172c-1.6662-.06653-2.98308-1.43598-2.98437-3.1035-.0004-1.75176 1.4463-3.15775 3.1973-3.10744zm74.15234.14452h.002c1.68087.04892 3.01798 1.42584 3.01758 3.10742-.0041 4.14046-6.22086 4.14046-6.2168 0-.0004-1.75175 1.44624-3.15773 3.19727-3.10742zM29.44186 81.4004h.002c1.68086.0489 3.01798 1.42584 3.01758 3.1074 0 4.14454-6.2168 4.14454-6.2168 0-.0004-1.75174 1.44624-3.15772 3.19727-3.1074zm46.05078.14452h.002c1.68087.04892 3.01798 1.42585 3.01758 3.10742 0 4.14453-6.2168 4.14453-6.2168 0-.0004-1.75174 1.44624-3.15773 3.19727-3.10742z" paint-order="stroke fill markers" stroke-linejoin="bevel"/>
</svg>
